<svg width="168" height="44" viewBox="0 0 168 44" fill="none" xmlns="http://www.w3.org/2000/svg">
<path d="M36.6523 9.25095L29.2715 4.94336C32.7064 8.48947 32.5786 9.12825 32.5786 11.7981V33.8293L37.0031 32.8153C38.1711 32.5476 39.0004 31.4981 39.0004 30.2874V13.3622C39.0004 11.666 38.1054 10.0989 36.6523 9.25095Z" fill="url(#paint0_linear_3421_11844)"/>
<path d="M2.34811 34.7483L9.72888 39.0559C6.29401 35.5098 6.42176 34.871 6.42176 32.2011V10.1699L1.99722 11.184C0.829292 11.4517 0 12.5012 0 13.7118V30.637C0.000245208 32.3332 0.895253 33.9003 2.34811 34.7483Z" fill="url(#paint1_linear_3421_11844)"/>
<path d="M14.0634 10.3369C14.0634 11.9761 14.0634 14.7334 14.0634 17.9496H24.9392C24.9392 10.0597 24.9392 2.4492 24.9392 2.4492L21.8321 0.635988C20.3793 -0.211996 18.589 -0.211996 17.1361 0.635988L2.34934 9.26603C0.896478 10.114 0.00146484 11.6811 0.00146484 13.3771V13.7122C0.00146484 12.5016 0.830519 11.452 1.99869 11.1843C1.99869 11.1843 5.3193 10.4338 6.42323 10.1703C10.58 9.17704 14.0634 8.92223 14.0634 10.3369Z" fill="url(#paint2_linear_3421_11844)"/>
<path d="M37.0032 32.8158C37.0032 32.8158 33.7689 33.5396 32.5787 33.8301C29.3216 34.6248 24.9382 35.0777 24.9382 33.6633C24.9382 32.0266 24.9382 29.2687 24.9382 26.0508H14.0625C14.0625 33.9412 14.0625 41.551 14.0625 41.551L17.1695 43.3644C18.6224 44.2124 20.4127 44.2124 21.8655 43.3644L36.6523 34.7344C38.1054 33.8864 39.0002 32.3193 39.0002 30.6233V30.2882C39.0004 31.4986 38.1711 32.5481 37.0032 32.8158Z" fill="url(#paint3_linear_3421_11844)"/>
<path d="M55.2209 6.224V18H52.9009V13.216H47.6369V18H45.3169V6.224H47.6369V10.976H52.9009V6.224H55.2209ZM58.2544 6.224H66.2864V8.464H60.5744V10.976H65.6304V13.216H60.5744V15.76H66.5104V18H58.2544V6.224ZM67.9506 6.224H70.9106L78.5906 18H75.5986L67.9506 6.224ZM67.7906 18L71.9826 11.408L73.0706 13.744L70.6706 18H67.7906ZM73.2306 10.544L75.6626 6.224H78.4786L74.4306 12.544L73.2306 10.544ZM79.1764 18L84.4884 5.76H84.6164L89.9284 18H87.2404L83.8484 9.392L85.5284 8.24L81.4644 18H79.1764ZM82.8084 13.744H86.3444L87.1604 15.696H82.0884L82.8084 13.744ZM91.645 18V6.224H95.165C96.349 6.224 97.357 6.4 98.189 6.752C99.021 7.104 99.6877 7.57333 100.189 8.16C100.701 8.74667 101.074 9.40267 101.309 10.128C101.544 10.8533 101.661 11.584 101.661 12.32C101.661 13.1947 101.501 13.984 101.181 14.688C100.872 15.3813 100.445 15.9787 99.901 16.48C99.357 16.9707 98.7277 17.3493 98.013 17.616C97.2983 17.872 96.541 18 95.741 18H91.645ZM93.965 15.76H95.341C96.1303 15.76 96.8183 15.6267 97.405 15.36C97.9917 15.0827 98.445 14.6773 98.765 14.144C99.0957 13.6107 99.261 12.9493 99.261 12.16C99.261 11.392 99.133 10.768 98.877 10.288C98.6317 9.79733 98.3223 9.41867 97.949 9.152C97.5863 8.88533 97.213 8.704 96.829 8.608C96.445 8.50133 96.1197 8.448 95.853 8.448H93.965V15.76ZM103.989 6.224H112.021V8.464H106.309V10.976H111.365V13.216H106.309V15.76H112.245V18H103.989V6.224ZM123.477 17.024C123.349 17.1307 123.109 17.2747 122.757 17.456C122.416 17.6373 121.994 17.7973 121.493 17.936C120.992 18.0747 120.437 18.1387 119.829 18.128C118.901 18.1067 118.069 17.9413 117.333 17.632C116.608 17.312 115.989 16.88 115.477 16.336C114.976 15.792 114.592 15.168 114.325 14.464C114.058 13.76 113.925 13.008 113.925 12.208C113.925 11.312 114.058 10.4907 114.325 9.744C114.602 8.99733 114.992 8.352 115.493 7.808C116.005 7.264 116.613 6.84267 117.317 6.544C118.021 6.24533 118.8 6.096 119.653 6.096C120.442 6.096 121.141 6.20267 121.749 6.416C122.357 6.62933 122.853 6.85867 123.237 7.104L122.325 9.296C122.058 9.09333 121.701 8.88533 121.253 8.672C120.816 8.448 120.309 8.336 119.733 8.336C119.136 8.336 118.576 8.50133 118.053 8.832C117.541 9.16267 117.125 9.61067 116.805 10.176C116.496 10.7307 116.341 11.3653 116.341 12.08C116.341 12.8373 116.485 13.504 116.773 14.08C117.061 14.6453 117.472 15.088 118.005 15.408C118.538 15.728 119.162 15.888 119.877 15.888C120.506 15.888 121.045 15.7867 121.493 15.584C121.941 15.3813 122.282 15.168 122.517 14.944L123.477 17.024ZM125.801 6.224H128.121V18H125.801V6.224ZM131.161 18V5.744H131.177L137.721 15.024L136.729 14.8L143.257 5.744H143.289V18H140.969V10.976L141.113 12.176L137.129 17.84H137.097L133.001 12.176L133.401 11.072V18H131.161ZM145.005 18L150.317 5.76H150.445L155.757 18H153.069L149.677 9.392L151.357 8.24L147.293 18H145.005ZM148.637 13.744H152.173L152.989 15.696H147.917L148.637 13.744ZM157.473 6.224H159.793V15.76H165.329V18H157.473V6.224Z" fill="url(#paint4_linear_3421_11844)"/>
<path d="M43 25L167 25" stroke="url(#paint5_linear_3421_11844)" stroke-linecap="round"/>
<path d="M48.856 32.304C48.52 32.12 48.176 31.968 47.824 31.848C47.48 31.728 47.156 31.668 46.852 31.668C46.476 31.668 46.18 31.744 45.964 31.896C45.748 32.048 45.64 32.276 45.64 32.58C45.64 32.788 45.72 32.976 45.88 33.144C46.048 33.304 46.26 33.448 46.516 33.576C46.78 33.704 47.052 33.82 47.332 33.924C47.676 34.052 48.008 34.216 48.328 34.416C48.648 34.608 48.912 34.876 49.12 35.22C49.328 35.556 49.432 36.004 49.432 36.564C49.432 37.012 49.316 37.428 49.084 37.812C48.852 38.196 48.512 38.508 48.064 38.748C47.616 38.98 47.064 39.096 46.408 39.096C45.904 39.096 45.388 39.02 44.86 38.868C44.34 38.716 43.848 38.476 43.384 38.148L44.152 36.792C44.456 37.016 44.804 37.2 45.196 37.344C45.588 37.488 45.94 37.56 46.252 37.56C46.46 37.56 46.668 37.532 46.876 37.476C47.092 37.412 47.268 37.308 47.404 37.164C47.548 37.02 47.62 36.82 47.62 36.564C47.62 36.388 47.56 36.228 47.44 36.084C47.328 35.94 47.172 35.808 46.972 35.688C46.78 35.568 46.568 35.464 46.336 35.376C46.064 35.272 45.784 35.152 45.496 35.016C45.208 34.88 44.936 34.716 44.68 34.524C44.432 34.324 44.228 34.08 44.068 33.792C43.916 33.496 43.84 33.136 43.84 32.712C43.84 32.2 43.952 31.756 44.176 31.38C44.408 31.004 44.732 30.708 45.148 30.492C45.564 30.268 46.044 30.144 46.588 30.12C47.3 30.12 47.876 30.204 48.316 30.372C48.764 30.54 49.164 30.74 49.516 30.972L48.856 32.304ZM50.5961 34.596C50.5961 33.988 50.7121 33.412 50.9441 32.868C51.1761 32.324 51.4961 31.844 51.9041 31.428C52.3201 31.004 52.8001 30.672 53.3441 30.432C53.8881 30.192 54.4681 30.072 55.0841 30.072C55.7081 30.072 56.2921 30.192 56.8361 30.432C57.3801 30.672 57.8601 31.004 58.2761 31.428C58.7001 31.844 59.0281 32.324 59.2601 32.868C59.5001 33.412 59.6201 33.988 59.6201 34.596C59.6201 35.22 59.5001 35.804 59.2601 36.348C59.0281 36.892 58.7001 37.372 58.2761 37.788C57.8601 38.196 57.3801 38.516 56.8361 38.748C56.2921 38.98 55.7121 39.096 55.0961 39.096C54.4721 39.096 53.8881 38.98 53.3441 38.748C52.8001 38.516 52.3201 38.196 51.9041 37.788C51.4961 37.372 51.1761 36.892 50.9441 36.348C50.7121 35.804 50.5961 35.22 50.5961 34.596ZM52.3961 34.596C52.3961 35.116 52.5161 35.592 52.7561 36.024C53.0041 36.448 53.3361 36.788 53.7521 37.044C54.1681 37.292 54.6361 37.416 55.1561 37.416C55.6601 37.416 56.1121 37.292 56.5121 37.044C56.9201 36.788 57.2401 36.448 57.4721 36.024C57.7041 35.592 57.8201 35.116 57.8201 34.596C57.8201 34.06 57.7001 33.58 57.4601 33.156C57.2201 32.724 56.8961 32.384 56.4881 32.136C56.0801 31.88 55.6201 31.752 55.1081 31.752C54.5961 31.752 54.1361 31.88 53.7281 32.136C53.3201 32.384 52.9961 32.724 52.7561 33.156C52.5161 33.58 52.3961 34.06 52.3961 34.596ZM61.3548 30.168H66.8748V31.848H63.0948V33.852H66.3708V35.532H63.0948V39H61.3548V30.168ZM67.9502 30.168H73.9022V31.848H71.7542V39H70.0142V31.848H67.9502V30.168ZM74.8254 30.228H76.8654L78.7494 35.772L78.4734 35.652L80.1174 31.56L80.9214 33.948L78.3774 39.408L74.8254 30.228ZM79.2534 30.228H80.9814L83.1534 35.592L82.8414 35.544L84.4614 30.228H86.3334L82.9254 39.384L79.2534 30.228ZM85.6713 39L89.6553 29.82H89.7513L93.7353 39H91.7193L89.1753 32.544L90.4353 31.68L87.3873 39H85.6713ZM88.3953 35.808H91.0473L91.6593 37.272H87.8553L88.3953 35.808ZM97.6988 30.168C98.4428 30.168 99.0708 30.292 99.5828 30.54C100.095 30.78 100.483 31.124 100.747 31.572C101.019 32.012 101.155 32.536 101.155 33.144C101.155 33.504 101.099 33.864 100.987 34.224C100.883 34.584 100.707 34.912 100.459 35.208C100.219 35.504 99.8988 35.744 99.4988 35.928C99.0988 36.104 98.6028 36.192 98.0108 36.192H96.7628V39H95.0228V30.168H97.6988ZM97.9988 34.512C98.3508 34.512 98.6228 34.44 98.8148 34.296C99.0148 34.144 99.1548 33.968 99.2348 33.768C99.3148 33.56 99.3548 33.372 99.3548 33.204C99.3548 33.108 99.3388 32.988 99.3068 32.844C99.2828 32.692 99.2268 32.54 99.1388 32.388C99.0508 32.236 98.9148 32.108 98.7308 32.004C98.5548 31.9 98.3148 31.848 98.0108 31.848H96.7628V34.512H97.9988ZM99.6308 35.592L101.815 39H99.7868L97.5548 35.64L99.6308 35.592ZM103.249 30.168H109.273V31.848H104.989V33.732H108.781V35.412H104.989V37.32H109.441V39H103.249V30.168Z" fill="url(#paint6_linear_3421_11844)"/>
<defs>
<linearGradient id="paint0_linear_3421_11844" x1="34.5578" y1="8.92779" x2="33.3582" y2="33.1887" gradientUnits="userSpaceOnUse">
<stop stop-color="#008ED3"/>
<stop offset="0.2162" stop-color="#018BD0"/>
<stop offset="0.4001" stop-color="#0480C6"/>
<stop offset="0.5723" stop-color="#096FB6"/>
<stop offset="0.7373" stop-color="#11569F"/>
<stop offset="0.8958" stop-color="#1A3682"/>
<stop offset="1" stop-color="#221D6B"/>
</linearGradient>
<linearGradient id="paint1_linear_3421_11844" x1="4.86464" y1="37.9205" x2="4.86464" y2="10.0977" gradientUnits="userSpaceOnUse">
<stop stop-color="#008ED3"/>
<stop offset="0.2162" stop-color="#018BD0"/>
<stop offset="0.4001" stop-color="#0480C6"/>
<stop offset="0.5723" stop-color="#096FB6"/>
<stop offset="0.7373" stop-color="#11569F"/>
<stop offset="0.8958" stop-color="#1A3682"/>
<stop offset="1" stop-color="#221D6B"/>
</linearGradient>
<linearGradient id="paint2_linear_3421_11844" x1="12.4703" y1="-1.64797" x2="12.4703" y2="40.7586" gradientUnits="userSpaceOnUse">
<stop stop-color="#008ED3"/>
<stop offset="0.2162" stop-color="#018BD0"/>
<stop offset="0.4001" stop-color="#0480C6"/>
<stop offset="0.5723" stop-color="#096FB6"/>
<stop offset="0.7373" stop-color="#11569F"/>
<stop offset="0.8958" stop-color="#1A3682"/>
<stop offset="1" stop-color="#221D6B"/>
</linearGradient>
<linearGradient id="paint3_linear_3421_11844" x1="26.5315" y1="20.3689" x2="26.5315" y2="55.5982" gradientUnits="userSpaceOnUse">
<stop stop-color="#008ED3"/>
<stop offset="0.2162" stop-color="#018BD0"/>
<stop offset="0.4001" stop-color="#0480C6"/>
<stop offset="0.5723" stop-color="#096FB6"/>
<stop offset="0.7373" stop-color="#11569F"/>
<stop offset="0.8958" stop-color="#1A3682"/>
<stop offset="1" stop-color="#221D6B"/>
</linearGradient>
<linearGradient id="paint4_linear_3421_11844" x1="43" y1="12" x2="197.205" y2="12" gradientUnits="userSpaceOnUse">
<stop stop-color="#018ED3"/>
<stop offset="1" stop-color="#1F2976"/>
</linearGradient>
<linearGradient id="paint5_linear_3421_11844" x1="43" y1="25.5" x2="167" y2="25.5" gradientUnits="userSpaceOnUse">
<stop stop-color="#028DD2"/>
<stop offset="1" stop-color="#18428D"/>
</linearGradient>
<linearGradient id="paint6_linear_3421_11844" x1="43" y1="35" x2="127.564" y2="35" gradientUnits="userSpaceOnUse">
<stop stop-color="#018ED3"/>
<stop offset="1" stop-color="#1F2976"/>
</linearGradient>
</defs>
</svg>
